<svg id="Calque_1" xmlns="http://www.w3.org/2000/svg" width="7.807" height="15.147" viewBox="0 0 7.807 15.147">
  <g id="Grupo_2550" data-name="Grupo 2550">
    <path id="Caminho_1028" data-name="Caminho 1028" d="M56.315,8.634l.318,1.932-1.126,2.153A4.141,4.141,0,0,0,54.361,11.3a1.8,1.8,0,0,0-1.614-.391,3.4,3.4,0,0,0-2.079,2.275,7.78,7.78,0,0,0-.489,2.69,6.116,6.116,0,0,0,.13,1.586,7.061,7.061,0,0,1-.677-3.115,7.815,7.815,0,0,1,.823-3.7A2.944,2.944,0,0,1,52.5,8.908a2.322,2.322,0,0,1,1.762.661,5.6,5.6,0,0,1,.945,1.279Z" transform="translate(-48.937 -8.634)" fill="#fff"/>
    <path id="Caminho_1029" data-name="Caminho 1029" d="M55.674,31.551a9.612,9.612,0,0,1-.807,1.234,4.942,4.942,0,0,1-1.548,1.242,2.886,2.886,0,0,1-1.72.293,3.383,3.383,0,0,1-1.525-.617,5.917,5.917,0,0,1-1.1-1.093c-.318-.448-.815-1.345-.815-1.345s.277.9.451,1.28a8.312,8.312,0,0,0,.842,1.475,4.012,4.012,0,0,0,2.393,1.7,3.042,3.042,0,0,0,2.226-.456,6.143,6.143,0,0,0,.9-.781,6.891,6.891,0,0,0,.7-.923c.108-.169.285-.514.285-.514Z" transform="translate(-48.158 -20.619)" fill="#fff"/>
  </g>
</svg>
