<svg id="Foreground"
  xmlns="http://www.w3.org/2000/svg" width="33.873" height="22.648" viewBox="0 0 33.873 22.648">
  <rect id="Ret창ngulo_2825" data-name="Ret창ngulo 2825" width="33.808" height="0.522" fill="#fff"/>
  <rect id="Ret창ngulo_2826" data-name="Ret창ngulo 2826" width="33.808" height="0.522" transform="translate(0 22.126)" fill="#fff"/>
  <g id="Grupo_2549" data-name="Grupo 2549" transform="translate(1.912 4.147)">
    <path id="Caminho_1026" data-name="Caminho 1026" d="M11.632,8.815l2.709,9.212,2.707-9.212h7.346V9.73L21.63,14.495a3.858,3.858,0,0,1,2.2,1.7,5.478,5.478,0,0,1,.747,2.9,5.45,5.45,0,0,1-1.093,3.457,3.552,3.552,0,0,1-5.11.57,4.893,4.893,0,0,1-1.439-2.251l1.532-.635a3.493,3.493,0,0,0,.888,1.354,1.878,1.878,0,0,0,1.3.5,1.56,1.56,0,0,0,1.327-.881,3.943,3.943,0,0,0,.542-2.115,3.382,3.382,0,0,0-.579-2.115,2.492,2.492,0,0,0-2.115-.881h-.747v-.883L21.7,10.684H18.546l-.176.306L14.528,23.95h-.187l-2.8-9.379-2.8,9.379H8.548L4.064,8.815H6.026l2.709,9.212,1.832-6.2-.9-3.009Z" transform="translate(-4.064 -8.815)" fill="#fff"/>
  </g>
  <path id="Caminho_1027" data-name="Caminho 1027" d="M67.347,8.815a1.363,1.363,0,0,0-.993.405,1.462,1.462,0,0,0-.433,1.025,1.445,1.445,0,0,0,1.427,1.43,1.46,1.46,0,0,0,1.017-.425,1.374,1.374,0,0,0,.417-1.005,1.428,1.428,0,0,0-.411-1A1.41,1.41,0,0,0,67.347,8.815Zm1.243,1.442a1.185,1.185,0,0,1-.362.862,1.255,1.255,0,0,1-.89.366,1.219,1.219,0,0,1-.865-.369,1.234,1.234,0,0,1-.366-.87,1.272,1.272,0,0,1,.377-.89A1.2,1.2,0,0,1,67.349,9a1.234,1.234,0,0,1,1.24,1.255Zm-1.2-.85h-.611v1.62h.306v-.691h.3l.33.691h.342l-.362-.739a.423.423,0,0,0,.369-.441c0-.29-.22-.441-.674-.441Zm-.056.2c.286,0,.417.079.417.278s-.13.258-.41.258h-.258V9.605h.251Z" transform="translate(-34.908 -4.668)" fill="#fff" fill-rule="evenodd"/>
  <path id="Caminho_1028" data-name="Caminho 1028" d="M56.315,8.634l.318,1.932-1.126,2.153A4.141,4.141,0,0,0,54.361,11.3a1.8,1.8,0,0,0-1.614-.391,3.4,3.4,0,0,0-2.079,2.275,7.78,7.78,0,0,0-.489,2.69,6.116,6.116,0,0,0,.13,1.586,7.061,7.061,0,0,1-.677-3.115,7.815,7.815,0,0,1,.823-3.7A2.944,2.944,0,0,1,52.5,8.908a2.322,2.322,0,0,1,1.762.661,5.6,5.6,0,0,1,.945,1.279Z" transform="translate(-25.937 -4.634)" fill="#fff"/>
  <path id="Caminho_1029" data-name="Caminho 1029" d="M55.674,31.551a9.612,9.612,0,0,1-.807,1.234,4.942,4.942,0,0,1-1.548,1.242,2.886,2.886,0,0,1-1.72.293,3.383,3.383,0,0,1-1.525-.617,5.917,5.917,0,0,1-1.1-1.093c-.318-.448-.815-1.345-.815-1.345s.277.9.451,1.28a8.312,8.312,0,0,0,.842,1.475,4.012,4.012,0,0,0,2.393,1.7,3.042,3.042,0,0,0,2.226-.456,6.143,6.143,0,0,0,.9-.781,6.891,6.891,0,0,0,.7-.923c.108-.169.285-.514.285-.514Z" transform="translate(-25.158 -16.619)" fill="#fff"/>
</svg>
