<svg xmlns="http://www.w3.org/2000/svg" width="8.186" height="13.222" viewBox="0 0 8.186 13.222">
  <path id="Path_36" data-name="Path 36" d="M143.64,6.39a4.421,4.421,0,0,1,2.318-.849c2.1-.259,4.283,1.383,4.162,3.5a3.3,3.3,0,0,1-.909,2.148,13.978,13.978,0,0,1,1.6,3.639c.562,2.129,1.011,3.909,1.011,3.909l-1.111-.253c-.145-.574-.486-1.453-.916-3.094a13.979,13.979,0,0,0-1.623-3.632,3.3,3.3,0,0,0,.909-2.148,3.622,3.622,0,0,0-4.162-3.5,6.215,6.215,0,0,0-1.282.278Z" transform="translate(-143.64 -5.513)" fill="#de6300"/>
</svg>
